<svg xmlns="http://www.w3.org/2000/svg" viewBox="0 0 375 525" width="375" height="525">
  <rect x="0" y="0" width="375" height="525" rx="20" ry="20" fill="#F7F4EF"/>
  <g transform="translate(20, 90)">
    <text x="0" y="0" font-family="Georgia, serif" font-size="80" font-weight="bold" fill="#1A1A1A">10</text>
    <g transform="translate(3, 15)">
      <path d="M15,0 C15,0 5,12 5,17 C5,21 8,24 12,24 C14,24 15,22 15,22 C15,22 16,24 18,24 C22,24 25,21 25,17 C25,12 15,0 15,0 Z" fill="#1A1A1A"/>
      <rect x="12" y="21" width="6" height="9" fill="#1A1A1A"/>
    </g>
  </g>
  <path d="M187.5,165 C187.5,165 107.5,245 107.5,290 C107.5,320 137.5,340 167.5,340 C182.5,340 187.5,325 187.5,325 C187.5,325 192.5,340 207.5,340 C237.5,340 267.5,320 267.5,290 C267.5,245 187.5,165 187.5,165 Z" fill="#1A1A1A"/>
  <rect x="175" y="330" width="25" height="40" fill="#1A1A1A"/>
</svg>
