<svg xmlns="http://www.w3.org/2000/svg" viewBox="0 0 375 525" width="375" height="525">
  <!-- Card base -->
  <rect x="0" y="0" width="375" height="525" rx="20" ry="20" fill="#F7F4EF"/>
  <rect x="4" y="4" width="367" height="517" rx="18" ry="18" fill="none" stroke="#C9A24D" stroke-width="1"/>

  <!-- Top-left rank and suit -->
  <g transform="translate(25, 50)">
    <text x="0" y="0" font-family="Georgia, serif" font-size="48" font-weight="bold" fill="#1A1A1A">J</text>
    <g transform="translate(0, 12)">
      <path d="M12,0 C12,0 2,12 2,17 C2,21 5,24 9,24 C11,24 12,22 12,22 C12,22 13,24 15,24 C19,24 22,21 22,17 C22,12 12,0 12,0 Z" fill="#1A1A1A"/>
      <rect x="9" y="21" width="6" height="9" fill="#1A1A1A"/>
    </g>
  </g>

  <!-- Bottom-right rank and suit (rotated 180°) -->
  <g transform="translate(350, 475) rotate(180)">
    <text x="0" y="0" font-family="Georgia, serif" font-size="48" font-weight="bold" fill="#1A1A1A">J</text>
    <g transform="translate(0, 12)">
      <path d="M12,0 C12,0 2,12 2,17 C2,21 5,24 9,24 C11,24 12,22 12,22 C12,22 13,24 15,24 C19,24 22,21 22,17 C22,12 12,0 12,0 Z" fill="#1A1A1A"/>
      <rect x="9" y="21" width="6" height="9" fill="#1A1A1A"/>
    </g>
  </g>

  <!-- Jack abstract geometric design - Bold blade/knot motif -->
  <g transform="translate(187.5, 262.5)">
    <!-- Outer frame -->
    <polygon points="0,-100 70,-50 70,50 0,100 -70,50 -70,-50" fill="none" stroke="#C9A24D" stroke-width="2"/>

    <!-- Crossed blades -->
    <line x1="-50" y1="-70" x2="50" y2="70" stroke="#1A1A1A" stroke-width="8" stroke-linecap="round"/>
    <line x1="50" y1="-70" x2="-50" y2="70" stroke="#1A1A1A" stroke-width="8" stroke-linecap="round"/>

    <!-- Central knot -->
    <circle cx="0" cy="0" r="25" fill="#F7F4EF" stroke="#1A1A1A" stroke-width="3"/>
    <circle cx="0" cy="0" r="15" fill="#1A1A1A"/>

    <!-- Spade in center -->
    <path d="M0 -6 C0 -6 -8 0 -8 4 C-8 7 -5 9 -3 9 C-1 9 0 7 0 5 C0 7 1 9 3 9 C5 9 8 7 8 4 C8 0 0 -6 0 -6 Z" fill="#F7F4EF"/>
    <path d="M-2 8 L0 12 L2 8" fill="#F7F4EF"/>

    <!-- Corner accents -->
    <circle cx="0" cy="-100" r="8" fill="#C9A24D"/>
    <circle cx="0" cy="100" r="8" fill="#C9A24D"/>
    <circle cx="-70" cy="0" r="6" fill="#C9A24D"/>
    <circle cx="70" cy="0" r="6" fill="#C9A24D"/>

    <!-- Blade tips -->
    <polygon points="-50,-70 -55,-80 -45,-80" fill="#1A1A1A"/>
    <polygon points="50,-70 55,-80 45,-80" fill="#1A1A1A"/>
    <polygon points="-50,70 -55,80 -45,80" fill="#1A1A1A"/>
    <polygon points="50,70 55,80 45,80" fill="#1A1A1A"/>
  </g>
</svg>