<svg xmlns="http://www.w3.org/2000/svg" viewBox="0 0 375 525" width="375" height="525">
  <!-- Card base -->
  <rect x="0" y="0" width="375" height="525" rx="20" ry="20" fill="#F7F4EF"/>
  <rect x="4" y="4" width="367" height="517" rx="18" ry="18" fill="none" stroke="#C9A24D" stroke-width="1.5"/>

  <!-- Top-left rank and suit -->
  <g transform="translate(25, 90)">
    <text x="0" y="0" font-family="Georgia, serif" font-size="96" font-weight="bold" fill="#1A1A1A">K</text>
    <g transform="translate(2, 12)">
      <path d="M12,0 C12,0 2,12 2,17 C2,21 5,24 9,24 C11,24 12,22 12,22 C12,22 13,24 15,24 C19,24 22,21 22,17 C22,12 12,0 12,0 Z" fill="#1A1A1A"/>
      <rect x="9" y="21" width="6" height="9" fill="#1A1A1A"/>
    </g>
  </g>

  <!-- King abstract geometric design - Heavy throne/pillar motif -->
  <g transform="translate(187.5, 262.5)">
    <!-- Outer strong rectangular frame -->
    <rect x="-80" y="-110" width="160" height="220" rx="8" fill="none" stroke="#C9A24D" stroke-width="3"/>
    <rect x="-70" y="-100" width="140" height="200" rx="5" fill="none" stroke="#1A1A1A" stroke-width="2"/>

    <!-- Crown at top -->
    <path d="M-55 -85 L-60 -110 L-30 -90 L0 -115 L30 -90 L60 -110 L55 -85 Z"
          fill="#C9A24D" stroke="#1A1A1A" stroke-width="1"/>
    <circle cx="-60" cy="-110" r="6" fill="#1A1A1A"/>
    <circle cx="0" cy="-115" r="8" fill="#1A1A1A"/>
    <circle cx="60" cy="-110" r="6" fill="#1A1A1A"/>

    <!-- Central pillar design -->
    <rect x="-25" y="-70" width="50" height="140" fill="#1A1A1A"/>
    <rect x="-20" y="-65" width="40" height="130" fill="#F7F4EF"/>
    <rect x="-15" y="-60" width="30" height="120" fill="#1A1A1A" opacity="0.3"/>

    <!-- Side pillars -->
    <rect x="-60" y="-50" width="20" height="100" fill="#1A1A1A"/>
    <rect x="40" y="-50" width="20" height="100" fill="#1A1A1A"/>

    <!-- Center large spade -->
    <path d="M0 -35 C0 -35 -30 -5 -30 18 C-30 32 -20 40 -10 40 C-4 40 -2 34 0 26 C2 34 4 40 10 40 C20 40 30 32 30 18 C30 -5 0 -35 0 -35 Z" fill="#1A1A1A"/>
    <path d="M-8 35 L0 55 L8 35" fill="#1A1A1A"/>
    <path d="M0 -25 C0 -25 -20 0 -20 15 C-20 25 -13 30 -6 30 C-2 30 -1 26 0 20 C1 26 2 30 6 30 C13 30 20 25 20 15 C20 0 0 -25 0 -25 Z" fill="#C9A24D"/>
    <path d="M0 -15 C0 -15 -12 3 -12 12 C-12 18 -8 22 -4 22 C-1 22 0 19 0 15 C0 19 1 22 4 22 C8 22 12 18 12 12 C12 3 0 -15 0 -15 Z" fill="#1A1A1A"/>

    <!-- Base platform -->
    <rect x="-70" y="70" width="140" height="15" fill="#C9A24D"/>
    <rect x="-75" y="85" width="150" height="10" fill="#1A1A1A"/>
  </g>
</svg>