<svg xmlns="http://www.w3.org/2000/svg" viewBox="0 0 375 525" width="375" height="525">
  <!-- Card base -->
  <rect x="0" y="0" width="375" height="525" rx="20" ry="20" fill="#F7F4EF"/>
  <rect x="4" y="4" width="367" height="517" rx="18" ry="18" fill="none" stroke="#C9A24D" stroke-width="1"/>

  <!-- Top-left rank and suit -->
  <g transform="translate(25, 50)">
    <text x="0" y="0" font-family="Georgia, serif" font-size="48" font-weight="bold" fill="#1A1A1A">Q</text>
    <g transform="translate(3, 12)">
      <path d="M12,0 C12,0 2,12 2,17 C2,21 5,24 9,24 C11,24 12,22 12,22 C12,22 13,24 15,24 C19,24 22,21 22,17 C22,12 12,0 12,0 Z" fill="#1A1A1A"/>
      <rect x="9" y="21" width="6" height="9" fill="#1A1A1A"/>
    </g>
  </g>

  <!-- Bottom-right rank and suit (rotated 180°) -->
  <g transform="translate(350, 475) rotate(180)">
    <text x="0" y="0" font-family="Georgia, serif" font-size="48" font-weight="bold" fill="#1A1A1A">Q</text>
    <g transform="translate(3, 12)">
      <path d="M12,0 C12,0 2,12 2,17 C2,21 5,24 9,24 C11,24 12,22 12,22 C12,22 13,24 15,24 C19,24 22,21 22,17 C22,12 12,0 12,0 Z" fill="#1A1A1A"/>
      <rect x="9" y="21" width="6" height="9" fill="#1A1A1A"/>
    </g>
  </g>

  <!-- Queen abstract geometric design - Elegant crown/floral motif -->
  <g transform="translate(187.5, 262.5)">
    <!-- Outer elegant oval frame -->
    <ellipse cx="0" cy="0" rx="85" ry="105" fill="none" stroke="#C9A24D" stroke-width="2"/>
    <ellipse cx="0" cy="0" rx="75" ry="95" fill="none" stroke="#1A1A1A" stroke-width="1"/>

    <!-- Crown shape at top -->
    <path d="M-40 -60 L-50 -85 L-25 -70 L0 -95 L25 -70 L50 -85 L40 -60"
          fill="none" stroke="#C9A24D" stroke-width="2.5" stroke-linejoin="round"/>
    <circle cx="-50" cy="-85" r="5" fill="#C9A24D"/>
    <circle cx="0" cy="-95" r="6" fill="#C9A24D"/>
    <circle cx="50" cy="-85" r="5" fill="#C9A24D"/>

    <!-- Central floral pattern -->
    <ellipse cx="0" cy="0" rx="40" ry="50" fill="none" stroke="#1A1A1A" stroke-width="2"/>

    <!-- Petal shapes -->
    <ellipse cx="0" cy="-35" rx="12" ry="20" fill="#1A1A1A" opacity="0.7"/>
    <ellipse cx="0" cy="35" rx="12" ry="20" fill="#1A1A1A" opacity="0.7"/>
    <ellipse cx="-30" cy="0" rx="20" ry="12" fill="#1A1A1A" opacity="0.7"/>
    <ellipse cx="30" cy="0" rx="20" ry="12" fill="#1A1A1A" opacity="0.7"/>

    <!-- Center spade -->
    <path d="M0 -15 C0 -15 -18 0 -18 12 C-18 20 -12 25 -5 25 C-2 25 -1 21 0 16 C1 21 2 25 5 25 C12 25 18 20 18 12 C18 0 0 -15 0 -15 Z" fill="#1A1A1A"/>
    <path d="M-4 22 L0 32 L4 22" fill="#1A1A1A"/>
    <path d="M0 -10 C0 -10 -12 2 -12 10 C-12 15 -8 18 -4 18 C-1 18 0 15 0 12 C0 15 1 18 4 18 C8 18 12 15 12 10 C12 2 0 -10 0 -10 Z" fill="#F7F4EF"/>

    <!-- Bottom decorative element -->
    <path d="M-40 60 L-50 85 L-25 70 L0 95 L25 70 L50 85 L40 60"
          fill="none" stroke="#C9A24D" stroke-width="2.5" stroke-linejoin="round"/>
    <circle cx="-50" cy="85" r="5" fill="#C9A24D"/>
    <circle cx="0" cy="95" r="6" fill="#C9A24D"/>
    <circle cx="50" cy="85" r="5" fill="#C9A24D"/>
  </g>
</svg>