<svg xmlns="http://www.w3.org/2000/svg" viewBox="0 0 375 525" width="375" height="525">
  <!-- Card base -->
  <rect x="0" y="0" width="375" height="525" rx="20" ry="20" fill="#F7F4EF"/>
  <rect x="4" y="4" width="367" height="517" rx="18" ry="18" fill="none" stroke="#C9A24D" stroke-width="2"/>

  <!-- Top-left rank and suit -->
  <g transform="translate(25, 50)">
    <text x="0" y="0" font-family="Georgia, serif" font-size="48" font-weight="bold" fill="#1A1A1A">A</text>
    <g transform="translate(16, 40)">
      <circle cx="0" cy="-10" r="8" fill="#1A1A1A"/>
      <circle cx="-8" cy="0" r="8" fill="#1A1A1A"/>
      <circle cx="8" cy="0" r="8" fill="#1A1A1A"/>
      <rect x="-2" y="0" width="4" height="15" fill="#1A1A1A"/>
    </g>
  </g>

  <!-- Bottom-right rank and suit (rotated 180°) -->
  <g transform="translate(350, 475) rotate(180)">
    <text x="0" y="0" font-family="Georgia, serif" font-size="48" font-weight="bold" fill="#1A1A1A">A</text>
    <g transform="translate(16, 40)">
      <circle cx="0" cy="-10" r="8" fill="#1A1A1A"/>
      <circle cx="-8" cy="0" r="8" fill="#1A1A1A"/>
      <circle cx="8" cy="0" r="8" fill="#1A1A1A"/>
      <rect x="-2" y="0" width="4" height="15" fill="#1A1A1A"/>
    </g>
  </g>

  <!-- Large central club with golden halo -->
  <g transform="translate(187.5, 262.5)">
    <!-- Golden halo effect -->
    <ellipse cx="0" cy="0" rx="95" ry="100" fill="none" stroke="#C9A24D" stroke-width="3" opacity="0.6"/>
    <ellipse cx="0" cy="0" rx="105" ry="110" fill="none" stroke="#C9A24D" stroke-width="1.5" opacity="0.4"/>

    <!-- Large club shape with gold trim -->
    <circle cx="0" cy="-45" r="40" fill="#1A1A1A" stroke="#C9A24D" stroke-width="3"/>
    <circle cx="-40" cy="10" r="40" fill="#1A1A1A" stroke="#C9A24D" stroke-width="3"/>
    <circle cx="40" cy="10" r="40" fill="#1A1A1A" stroke="#C9A24D" stroke-width="3"/>
    <rect x="-15" y="10" width="30" height="70" fill="#1A1A1A" stroke="#C9A24D" stroke-width="3"/>

    <!-- Golden accent on club -->
    <circle cx="0" cy="-45" r="25" fill="none" stroke="#C9A24D" stroke-width="2"/>
    <circle cx="-40" cy="10" r="25" fill="none" stroke="#C9A24D" stroke-width="2"/>
    <circle cx="40" cy="10" r="25" fill="none" stroke="#C9A24D" stroke-width="2"/>

    <!-- Inner highlight -->
    <circle cx="0" cy="-45" r="12" fill="#F7F4EF" opacity="0.3"/>
    <circle cx="-40" cy="10" r="12" fill="#F7F4EF" opacity="0.3"/>
    <circle cx="40" cy="10" r="12" fill="#F7F4EF" opacity="0.3"/>
  </g>
</svg>
