<svg xmlns="http://www.w3.org/2000/svg" viewBox="0 0 375 525" width="375" height="525">
  <!-- Card base -->
  <rect x="0" y="0" width="375" height="525" rx="20" ry="20" fill="#F7F4EF"/>
  <rect x="4" y="4" width="367" height="517" rx="18" ry="18" fill="none" stroke="#C9A24D" stroke-width="1.5"/>

  <!-- Top-left rank and suit -->
  <g transform="translate(25, 90)">
    <text x="0" y="0" font-family="Georgia, serif" font-size="96" font-weight="bold" fill="#1A1A1A">K</text>
    <g transform="translate(16, 40)">
      <circle cx="0" cy="-10" r="8" fill="#1A1A1A"/>
      <circle cx="-8" cy="0" r="8" fill="#1A1A1A"/>
      <circle cx="8" cy="0" r="8" fill="#1A1A1A"/>
      <rect x="-2" y="0" width="4" height="15" fill="#1A1A1A"/>
    </g>
  </g>

  <!-- King abstract geometric design - Heavy throne/pillar motif -->
  <g transform="translate(187.5, 262.5)">
    <!-- Outer strong rectangular frame -->
    <rect x="-80" y="-110" width="160" height="220" rx="8" fill="none" stroke="#C9A24D" stroke-width="3"/>
    <rect x="-70" y="-100" width="140" height="200" rx="5" fill="none" stroke="#1A1A1A" stroke-width="2"/>

    <!-- Crown at top -->
    <path d="M-55 -85 L-60 -110 L-30 -90 L0 -115 L30 -90 L60 -110 L55 -85 Z"
          fill="#C9A24D" stroke="#1A1A1A" stroke-width="1"/>
    <circle cx="-60" cy="-110" r="6" fill="#1A1A1A"/>
    <circle cx="0" cy="-115" r="8" fill="#1A1A1A"/>
    <circle cx="60" cy="-110" r="6" fill="#1A1A1A"/>

    <!-- Central pillar design -->
    <rect x="-25" y="-70" width="50" height="140" fill="#1A1A1A"/>
    <rect x="-20" y="-65" width="40" height="130" fill="#F7F4EF"/>
    <rect x="-15" y="-60" width="30" height="120" fill="#1A1A1A" opacity="0.3"/>

    <!-- Side pillars -->
    <rect x="-60" y="-50" width="20" height="100" fill="#1A1A1A"/>
    <rect x="40" y="-50" width="20" height="100" fill="#1A1A1A"/>

    <!-- Center large club -->
    <circle cx="0" cy="-25" r="22" fill="#1A1A1A"/>
    <circle cx="-22" cy="0" r="22" fill="#1A1A1A"/>
    <circle cx="22" cy="0" r="22" fill="#1A1A1A"/>
    <rect x="-8" y="0" width="16" height="35" fill="#1A1A1A"/>
    <!-- Golden accent on club -->
    <circle cx="0" cy="-25" r="14" fill="none" stroke="#C9A24D" stroke-width="2"/>
    <circle cx="-22" cy="0" r="14" fill="none" stroke="#C9A24D" stroke-width="2"/>
    <circle cx="22" cy="0" r="14" fill="none" stroke="#C9A24D" stroke-width="2"/>
    <!-- Inner highlight -->
    <circle cx="0" cy="-25" r="8" fill="#F7F4EF" opacity="0.5"/>
    <circle cx="-22" cy="0" r="8" fill="#F7F4EF" opacity="0.5"/>
    <circle cx="22" cy="0" r="8" fill="#F7F4EF" opacity="0.5"/>

    <!-- Base platform -->
    <rect x="-70" y="70" width="140" height="15" fill="#C9A24D"/>
    <rect x="-75" y="85" width="150" height="10" fill="#1A1A1A"/>
  </g>
</svg>
