<svg xmlns="http://www.w3.org/2000/svg" viewBox="0 0 375 525" width="375" height="525">
  <!-- Card base -->
  <rect x="0" y="0" width="375" height="525" rx="20" ry="20" fill="#F7F4EF"/>
  <rect x="4" y="4" width="367" height="517" rx="18" ry="18" fill="none" stroke="#C9A24D" stroke-width="1"/>

  <!-- Top-left rank and suit -->
  <g transform="translate(25, 50)">
    <text x="0" y="0" font-family="Georgia, serif" font-size="48" font-weight="bold" fill="#1A1A1A">Q</text>
    <g transform="translate(18, 40)">
      <circle cx="0" cy="-10" r="8" fill="#1A1A1A"/>
      <circle cx="-8" cy="0" r="8" fill="#1A1A1A"/>
      <circle cx="8" cy="0" r="8" fill="#1A1A1A"/>
      <rect x="-2" y="0" width="4" height="15" fill="#1A1A1A"/>
    </g>
  </g>

  <!-- Bottom-right rank and suit (rotated 180°) -->
  <g transform="translate(350, 475) rotate(180)">
    <text x="0" y="0" font-family="Georgia, serif" font-size="48" font-weight="bold" fill="#1A1A1A">Q</text>
    <g transform="translate(18, 40)">
      <circle cx="0" cy="-10" r="8" fill="#1A1A1A"/>
      <circle cx="-8" cy="0" r="8" fill="#1A1A1A"/>
      <circle cx="8" cy="0" r="8" fill="#1A1A1A"/>
      <rect x="-2" y="0" width="4" height="15" fill="#1A1A1A"/>
    </g>
  </g>

  <!-- Queen abstract geometric design - Elegant crown/floral motif -->
  <g transform="translate(187.5, 262.5)">
    <!-- Outer elegant oval frame -->
    <ellipse cx="0" cy="0" rx="85" ry="105" fill="none" stroke="#C9A24D" stroke-width="2"/>
    <ellipse cx="0" cy="0" rx="75" ry="95" fill="none" stroke="#1A1A1A" stroke-width="1"/>

    <!-- Crown shape at top -->
    <path d="M-40 -60 L-50 -85 L-25 -70 L0 -95 L25 -70 L50 -85 L40 -60"
          fill="none" stroke="#C9A24D" stroke-width="2.5" stroke-linejoin="round"/>
    <circle cx="-50" cy="-85" r="5" fill="#C9A24D"/>
    <circle cx="0" cy="-95" r="6" fill="#C9A24D"/>
    <circle cx="50" cy="-85" r="5" fill="#C9A24D"/>

    <!-- Central floral pattern -->
    <ellipse cx="0" cy="0" rx="40" ry="50" fill="none" stroke="#1A1A1A" stroke-width="2"/>

    <!-- Petal shapes -->
    <ellipse cx="0" cy="-35" rx="12" ry="20" fill="#1A1A1A" opacity="0.7"/>
    <ellipse cx="0" cy="35" rx="12" ry="20" fill="#1A1A1A" opacity="0.7"/>
    <ellipse cx="-30" cy="0" rx="20" ry="12" fill="#1A1A1A" opacity="0.7"/>
    <ellipse cx="30" cy="0" rx="20" ry="12" fill="#1A1A1A" opacity="0.7"/>

    <!-- Center club -->
    <circle cx="0" cy="-12" r="10" fill="#1A1A1A"/>
    <circle cx="-10" cy="0" r="10" fill="#1A1A1A"/>
    <circle cx="10" cy="0" r="10" fill="#1A1A1A"/>
    <rect x="-3" y="0" width="6" height="15" fill="#1A1A1A"/>
    <!-- Inner highlight -->
    <circle cx="0" cy="-12" r="5" fill="#F7F4EF"/>
    <circle cx="-10" cy="0" r="5" fill="#F7F4EF"/>
    <circle cx="10" cy="0" r="5" fill="#F7F4EF"/>

    <!-- Bottom decorative element -->
    <path d="M-40 60 L-50 85 L-25 70 L0 95 L25 70 L50 85 L40 60"
          fill="none" stroke="#C9A24D" stroke-width="2.5" stroke-linejoin="round"/>
    <circle cx="-50" cy="85" r="5" fill="#C9A24D"/>
    <circle cx="0" cy="95" r="6" fill="#C9A24D"/>
    <circle cx="50" cy="85" r="5" fill="#C9A24D"/>
  </g>
</svg>
