<svg xmlns="http://www.w3.org/2000/svg" viewBox="0 0 375 525" width="375" height="525">
  <defs>
    <linearGradient id="goldAccent" x1="0%" y1="0%" x2="100%" y2="100%">
      <stop offset="0%" style="stop-color:#C9A24D;stop-opacity:0.8"/>
      <stop offset="100%" style="stop-color:#C9A24D;stop-opacity:0.4"/>
    </linearGradient>
  </defs>

  <!-- Card base -->
  <rect x="0" y="0" width="375" height="525" rx="20" ry="20" fill="#F7F4EF"/>
  <rect x="4" y="4" width="367" height="517" rx="18" ry="18" fill="none" stroke="#C9A24D" stroke-width="1"/>

  <!-- Top-left rank and suit -->
  <g transform="translate(25, 90)">
    <text x="0" y="0" font-family="Georgia, serif" font-size="96" font-weight="bold" fill="#8B1E1E">J</text>
    <path d="M12,12 C12,12 12,8 8,8 C4,8 2,12 2,15 C2,21 12,28 12,28 C12,28 22,21 22,15 C22,12 20,8 16,8 C12,8 12,12 12,12 Z" fill="#8B1E1E" transform="translate(0, 12)"/>
  </g>

  <!-- Jack abstract geometric design - Bold blade/knot motif -->
  <g transform="translate(187.5, 262.5)">
    <!-- Outer diamond frame -->
    <polygon points="0,-100 70,-50 70,50 0,100 -70,50 -70,-50" fill="none" stroke="#C9A24D" stroke-width="2"/>

    <!-- Inner crossed blades -->
    <line x1="-50" y1="-70" x2="50" y2="70" stroke="#8B1E1E" stroke-width="8" stroke-linecap="round"/>
    <line x1="50" y1="-70" x2="-50" y2="70" stroke="#8B1E1E" stroke-width="8" stroke-linecap="round"/>

    <!-- Central knot -->
    <circle cx="0" cy="0" r="25" fill="#F7F4EF" stroke="#8B1E1E" stroke-width="3"/>
    <circle cx="0" cy="0" r="15" fill="#8B1E1E"/>

    <!-- Heart accent in center -->
    <path d="M0 -5 C-4 -10 -10 -8 -10 -2 C-10 5 0 12 0 12 C0 12 10 5 10 -2 C10 -8 4 -10 0 -5 Z" fill="#F7F4EF"/>

    <!-- Corner accents -->
    <circle cx="0" cy="-100" r="8" fill="#C9A24D"/>
    <circle cx="0" cy="100" r="8" fill="#C9A24D"/>
    <circle cx="-70" cy="0" r="6" fill="#C9A24D"/>
    <circle cx="70" cy="0" r="6" fill="#C9A24D"/>

    <!-- Blade tips -->
    <polygon points="-50,-70 -55,-80 -45,-80" fill="#8B1E1E"/>
    <polygon points="50,-70 55,-80 45,-80" fill="#8B1E1E"/>
    <polygon points="-50,70 -55,80 -45,80" fill="#8B1E1E"/>
    <polygon points="50,70 55,80 45,80" fill="#8B1E1E"/>
  </g>
</svg>