<svg xmlns="http://www.w3.org/2000/svg" viewBox="0 0 375 525" width="375" height="525">
  <!-- Card base -->
  <rect x="0" y="0" width="375" height="525" rx="20" ry="20" fill="#F7F4EF"/>
  <rect x="4" y="4" width="367" height="517" rx="18" ry="18" fill="none" stroke="#C9A24D" stroke-width="1"/>

  <!-- Top-left rank and suit -->
  <g transform="translate(25, 90)">
    <text x="0" y="0" font-family="Georgia, serif" font-size="96" font-weight="bold" fill="#8B1E1E">Q</text>
    <path d="M12,12 C12,12 12,8 8,8 C4,8 2,12 2,15 C2,21 12,28 12,28 C12,28 22,21 22,15 C22,12 20,8 16,8 C12,8 12,12 12,12 Z" fill="#8B1E1E" transform="translate(3, 12)"/>
  </g>

  <!-- Queen abstract geometric design - Elegant crown/floral motif -->
  <g transform="translate(187.5, 262.5)">
    <!-- Outer elegant oval frame -->
    <ellipse cx="0" cy="0" rx="85" ry="105" fill="none" stroke="#C9A24D" stroke-width="2"/>
    <ellipse cx="0" cy="0" rx="75" ry="95" fill="none" stroke="#8B1E1E" stroke-width="1"/>

    <!-- Crown shape at top -->
    <path d="M-40 -60 L-50 -85 L-25 -70 L0 -95 L25 -70 L50 -85 L40 -60"
          fill="none" stroke="#C9A24D" stroke-width="2.5" stroke-linejoin="round"/>
    <circle cx="-50" cy="-85" r="5" fill="#C9A24D"/>
    <circle cx="0" cy="-95" r="6" fill="#C9A24D"/>
    <circle cx="50" cy="-85" r="5" fill="#C9A24D"/>

    <!-- Central floral pattern -->
    <ellipse cx="0" cy="0" rx="40" ry="50" fill="none" stroke="#8B1E1E" stroke-width="2"/>

    <!-- Petal shapes -->
    <ellipse cx="0" cy="-35" rx="12" ry="20" fill="#8B1E1E" opacity="0.7"/>
    <ellipse cx="0" cy="35" rx="12" ry="20" fill="#8B1E1E" opacity="0.7"/>
    <ellipse cx="-30" cy="0" rx="20" ry="12" fill="#8B1E1E" opacity="0.7"/>
    <ellipse cx="30" cy="0" rx="20" ry="12" fill="#8B1E1E" opacity="0.7"/>

    <!-- Center heart -->
    <path d="M0 -12 C-8 -22 -22 -18 -22 -5 C-22 12 0 28 0 28 C0 28 22 12 22 -5 C22 -18 8 -22 0 -12 Z" fill="#8B1E1E"/>
    <path d="M0 -8 C-5 -15 -14 -12 -14 -3 C-14 8 0 18 0 18 C0 18 14 8 14 -3 C14 -12 5 -15 0 -8 Z" fill="#F7F4EF"/>

    <!-- Bottom decorative element (mirrored crown) -->
    <path d="M-40 60 L-50 85 L-25 70 L0 95 L25 70 L50 85 L40 60"
          fill="none" stroke="#C9A24D" stroke-width="2.5" stroke-linejoin="round"/>
    <circle cx="-50" cy="85" r="5" fill="#C9A24D"/>
    <circle cx="0" cy="95" r="6" fill="#C9A24D"/>
    <circle cx="50" cy="85" r="5" fill="#C9A24D"/>
  </g>
</svg>