<svg xmlns="http://www.w3.org/2000/svg" viewBox="0 0 375 525" width="375" height="525">
  <!-- Card base -->
  <rect x="0" y="0" width="375" height="525" rx="20" ry="20" fill="#F7F4EF"/>
  <rect x="4" y="4" width="367" height="517" rx="18" ry="18" fill="none" stroke="#C9A24D" stroke-width="1"/>

  <!-- Top-left rank and suit -->
  <g transform="translate(25, 90)">
    <text x="0" y="0" font-family="Georgia, serif" font-size="96" font-weight="bold" fill="#8B1E1E">J</text>
    <polygon points="15,15 25,32 15,49 5,32" fill="#8B1E1E" transform="translate(-2, 10)"/>
  </g>

  <!-- Jack abstract geometric design - Bold blade/knot motif -->
  <g transform="translate(187.5, 262.5)">
    <!-- Outer diamond frame -->
    <polygon points="0,-100 70,-50 70,50 0,100 -70,50 -70,-50" fill="none" stroke="#C9A24D" stroke-width="2"/>

    <!-- Inner crossed blades -->
    <line x1="-50" y1="-70" x2="50" y2="70" stroke="#8B1E1E" stroke-width="8" stroke-linecap="round"/>
    <line x1="50" y1="-70" x2="-50" y2="70" stroke="#8B1E1E" stroke-width="8" stroke-linecap="round"/>

    <!-- Central knot -->
    <polygon points="0,-30 30,0 0,30 -30,0" fill="#F7F4EF" stroke="#8B1E1E" stroke-width="3"/>
    <polygon points="0,-18 18,0 0,18 -18,0" fill="#8B1E1E"/>

    <!-- Diamond accent in center -->
    <polygon points="0,-8 8,0 0,8 -8,0" fill="#F7F4EF"/>

    <!-- Corner accents -->
    <circle cx="0" cy="-100" r="8" fill="#C9A24D"/>
    <circle cx="0" cy="100" r="8" fill="#C9A24D"/>
    <circle cx="-70" cy="0" r="6" fill="#C9A24D"/>
    <circle cx="70" cy="0" r="6" fill="#C9A24D"/>

    <!-- Blade tips -->
    <polygon points="-50,-70 -55,-80 -45,-80" fill="#8B1E1E"/>
    <polygon points="50,-70 55,-80 45,-80" fill="#8B1E1E"/>
    <polygon points="-50,70 -55,80 -45,80" fill="#8B1E1E"/>
    <polygon points="50,70 55,80 45,80" fill="#8B1E1E"/>
  </g>
</svg>