<svg xmlns="http://www.w3.org/2000/svg" viewBox="0 0 375 525" width="375" height="525">
  <!-- Card base -->
  <rect x="0" y="0" width="375" height="525" rx="20" ry="20" fill="#F7F4EF"/>
  <rect x="4" y="4" width="367" height="517" rx="18" ry="18" fill="none" stroke="#C9A24D" stroke-width="1.5"/>

  <!-- Top-left rank and suit -->
  <g transform="translate(25, 50)">
    <text x="0" y="0" font-family="Georgia, serif" font-size="48" font-weight="bold" fill="#8B1E1E">K</text>
    <polygon points="15,15 25,32 15,49 5,32" fill="#8B1E1E" transform="translate(2, 10)"/>
  </g>

  <!-- Bottom-right rank and suit (rotated 180°) -->
  <g transform="translate(350, 475) rotate(180)">
    <text x="0" y="0" font-family="Georgia, serif" font-size="48" font-weight="bold" fill="#8B1E1E">K</text>
    <polygon points="15,15 25,32 15,49 5,32" fill="#8B1E1E" transform="translate(2, 10)"/>
  </g>

  <!-- King abstract geometric design - Heavy throne/pillar motif -->
  <g transform="translate(187.5, 262.5)">
    <!-- Outer strong diamond frame -->
    <polygon points="0,-115 90,0 0,115 -90,0" fill="none" stroke="#C9A24D" stroke-width="3"/>
    <polygon points="0,-100 78,0 0,100 -78,0" fill="none" stroke="#8B1E1E" stroke-width="2"/>

    <!-- Crown at top - heavy and dominant -->
    <path d="M-50 -75 L-55 -100 L-25 -82 L0 -108 L25 -82 L55 -100 L50 -75 Z"
          fill="#C9A24D" stroke="#8B1E1E" stroke-width="1"/>
    <polygon points="-55,-100 -52,-90 -58,-90" fill="#8B1E1E"/>
    <polygon points="0,-108 4,-98 -4,-98" fill="#8B1E1E"/>
    <polygon points="55,-100 58,-90 52,-90" fill="#8B1E1E"/>

    <!-- Central pillar design -->
    <polygon points="0,-60 25,-30 25,60 0,90 -25,60 -25,-30" fill="#8B1E1E"/>
    <polygon points="0,-50 18,-25 18,50 0,75 -18,50 -18,-25" fill="#F7F4EF"/>
    <polygon points="0,-40 12,-20 12,40 0,60 -12,40 -12,-20" fill="#8B1E1E" opacity="0.3"/>

    <!-- Side pillars -->
    <polygon points="-55,-35 -40,-20 -40,50 -55,65" fill="#8B1E1E"/>
    <polygon points="55,-35 40,-20 40,50 55,65" fill="#8B1E1E"/>

    <!-- Center large diamond -->
    <polygon points="0,-25 25,0 0,25 -25,0" fill="#8B1E1E"/>
    <polygon points="0,-15 15,0 0,15 -15,0" fill="#C9A24D"/>
    <polygon points="0,-8 8,0 0,8 -8,0" fill="#8B1E1E"/>

    <!-- Base platform -->
    <polygon points="-65,70 0,95 65,70 55,80 0,100 -55,80" fill="#C9A24D"/>
    <polygon points="-70,75 0,105 70,75 60,85 0,110 -60,85" fill="#8B1E1E"/>
  </g>
</svg>